<svg id="Layer_1" data-name="Layer 1" xmlns="http://www.w3.org/2000/svg" viewBox="0 0 600 600"><defs><style>.cls-1{fill:#231f20;}</style></defs><title>chat</title><path class="cls-1" d="M565.22,176.57v140a40.12,40.12,0,0,1-40,40h-8.67v68l-55-68H364.33v-109c0-29.86-17.33-50-50-50H265.22v-21a40.12,40.12,0,0,1,40-40h220A40.12,40.12,0,0,1,565.22,176.57Zm-266.89,47h-220a39.62,39.62,0,0,0-19.11,4.89,40.11,40.11,0,0,0-20.89,35.11v140a40.12,40.12,0,0,0,40,40H87v68l55-68H298.33a40.11,40.11,0,0,0,35.11-20.89,39.62,39.62,0,0,0,4.89-19.11v-140A40.12,40.12,0,0,0,298.33,223.57Z"/></svg>