<svg id="Layer_1" data-name="Layer 1" xmlns="http://www.w3.org/2000/svg" viewBox="0 0 600 600"><defs><style>.cls-1{fill:#231f20;}</style></defs><title>coffee</title><path class="cls-1" d="M206.24,201.47s-48.47-37.52,0-87.19,10.26-89.4,10.26-89.4,53.58,28.7,40.58,58.49S206.24,116.49,206.24,201.47ZM545,394.67c0,60.16-52.86,109.76-120.22,115.37v37.37c0,10.84-9.5,19.71-21.11,19.71H93.32c-11.61,0-21.11-8.87-21.11-19.71V241.93c0-10.84,9.5-19.71,21.11-19.71H403.67c11.61,0,21.11,8.87,21.11,19.71v37.36C492.14,284.9,545,334.5,545,394.67Zm-38,0c0-40.7-35.86-74.43-82.22-79.72V474.38C471.14,469.09,507,435.36,507,394.67ZM320.16,131.2c4.2-16-31.55-46-31.55-46,15.45,30.21,12.17,51.89-11.08,73.57s1,43.66,1,43.66C283.69,171.11,312.87,159,320.16,131.2Z"/></svg>