<svg xmlns="http://www.w3.org/2000/svg" viewBox="0 0 600 600"><defs><style>.cls-1{fill:#231f20;}.cls-2{fill:#fff;}</style></defs><title>multiweek</title><g id="Layer_3" data-name="Layer 3"><path class="cls-1" d="M389.39,458.65c.12.59.24,1.18.35,1.77h1.67C390.73,459.85,390.06,459.26,389.39,458.65Z"/><path class="cls-2" d="M498.74,461.89H492a32.44,32.44,0,0,1-3.81,12.44c6.45-2.53,16.9-9.06,20.61-14.82C507.11,459.76,500.44,461.89,498.74,461.89Z"/><path d="M567,133.09V400.53c0,15.31-3.57,26.22-17.79,29.79,3.87-5.37,4.14-12,4.14-19.07V143.82C553.5,123,541.5,111,516.57,111H128.35a32.93,32.93,0,0,0-8,1c6-8.29,14.68-11.7,25.64-11.7H534.22A32.82,32.82,0,0,1,567,133.09Zm-68.26-4.21H110.52c-11.57,0-20.76,4-26.6,13.11a33.23,33.23,0,0,1,5-.38H477.16c24.84-.11,37.34,11.89,36.78,32.78V441.83a32.61,32.61,0,0,1-5.19,17.68c15.7-2.42,22.77-14,22.77-30.41V161.67A32.83,32.83,0,0,0,498.74,128.88Zm-6.63,62.38V458.7a30.56,30.56,0,0,1-.16,3.19,32.44,32.44,0,0,1-3.81,12.44,32.83,32.83,0,0,1-28.81,17.15h-44.4a17.22,17.22,0,0,1-13.14,6.1h-2a16.9,16.9,0,0,0,.61-4.53v-1.57H359a55.29,55.29,0,0,0,24.53,10.76v6.66a17.31,17.31,0,0,1-17.26,17.26H364.8a16.29,16.29,0,0,0,.19-2.53V516c-15-2.39-28.53-10.6-39.27-24.49H295.4c11.6,22.09,29,37.2,48.76,40.36v6.66a17.31,17.31,0,0,1-17.26,17.25H203.54a17.31,17.31,0,0,1-17.26-17.25v-7c19.08-3.74,35.78-18.6,47-40H71.11A32.82,32.82,0,0,1,38.33,458.7V191.26a32.82,32.82,0,0,1,32.78-32.78H459.33A32.82,32.82,0,0,1,492.11,191.26Zm-31.06,0a1.73,1.73,0,0,0-1.72-1.73H71.11a1.75,1.75,0,0,0-1.72,1.73V458.7a1.75,1.75,0,0,0,1.72,1.72H140.7C153,395.89,199.82,346.94,256.85,342.55a63.84,63.84,0,1,1,16.74,0c56.52,4.35,103,52.44,115.8,116.1.12.59.24,1.18.35,1.77h69.59A1.73,1.73,0,0,0,461,458.7Z"/></g></svg>