<svg id="Layer_1" data-name="Layer 1" xmlns="http://www.w3.org/2000/svg" viewBox="0 0 600 600"><defs><style>.cls-1{fill:#63b546;}</style></defs><title>switcher</title><path class="cls-1" d="M513.93,461.82a268.22,268.22,0,0,1-438-14.53c1.85.91,222.29,109.54,362.58-61.82l-65.22-65.41s-4-4.84-2.86-7.19,4.47-2.52,4.47-2.52l196.73.28s8.54.28,11.57,3.36c3.5,3.55,3.55,9.53,3.55,9.53l-.28,197.4s-.19,5.18-2.09,5.92-5.86-1-5.86-1L532.78,480M67.33,120,22.85,75.4S17.63,71.15,15.77,72s-2.13,7.37-2.13,7.37L13.36,276a10.82,10.82,0,0,0,3.55,10c4.84,4.23,11.41,3.36,11.41,3.36l195.18.27s6.44-.53,7.33-2.48S226.9,280,226.9,280l-65.3-65.5C301.9,43.17,522.33,151.8,524.18,152.71a268.22,268.22,0,0,0-438-14.54"/></svg>