<svg xmlns="http://www.w3.org/2000/svg" viewBox="0 0 600 600"><defs><style>.cls-1{fill:#231f20;}</style></defs><title>workshop</title><g id="Layer_2" data-name="Layer 2"><path class="cls-1" d="M525.33,93.75h-450a38,38,0,0,0-38,38v310a38,38,0,0,0,38,38h188c-13.06,24.86-32.42,42.09-54.53,46.43v8.07a20.06,20.06,0,0,0,20,20h143a20.06,20.06,0,0,0,20-20v-7.72c-22.94-3.66-43.07-21.17-56.52-46.78h190a38,38,0,0,0,38-38v-310A38,38,0,0,0,525.33,93.75Zm2,348a2,2,0,0,1-2,2H444.67C430.45,369,376.15,312.21,310,307.12a74,74,0,1,0-19.4,0C224.52,312.21,170.21,369,156,443.75H75.33a2,2,0,0,1-2-2v-310a2,2,0,0,1,2-2h450a2,2,0,0,1,2,2Z"/></g></svg>